<svg xmlns="http://www.w3.org/2000/svg" viewBox="0 0 64 64">
  <!-- Sail -->
  <path d="M32 6 L32 36 L14 36 Z" fill="#1E3A5F"/>
  <path d="M34 12 L34 36 L48 36 Z" fill="#2D5A87"/>
  <!-- Mast -->
  <line x1="32" y1="6" x2="32" y2="42" stroke="#111827" stroke-width="2.5" stroke-linecap="round"/>
  <!-- Hull -->
  <path d="M8 42 L14 52 H50 L56 42 Z" fill="#DC2626" rx="2"/>
  <path d="M12 42 H52" stroke="#991B1B" stroke-width="1"/>
  <!-- Water -->
  <path d="M0 54 Q8 50 16 54 Q24 58 32 54 Q40 50 48 54 Q56 58 64 54 V64 H0 Z" fill="#3B82F6" opacity="0.4"/>
  <path d="M0 58 Q10 54 20 58 Q30 62 40 58 Q50 54 60 58 Q64 60 64 60 V64 H0 Z" fill="#3B82F6" opacity="0.6"/>
</svg>
